<svg xmlns="http://www.w3.org/2000/svg" viewBox="0 0 100 125"><path d="M25.47 42.7l-.11.17c-.05.08-.08.16-.1.25l-.05.09v.12l-.02.14V71c0 .56.37 1.05.91 1.2l24.94 7h.02c.11.03.22.05.34.05.11 0 .23-.02.35-.06l.08-.02.06-.02 22.17-9.57c.46-.2.75-.65.75-1.15V41.6c0-.07-.02-.13-.03-.2-.01-.05 0-.1-.02-.16l-.02-.05c-.03-.09-.09-.16-.13-.24l-.12-.18s0-.02-.02-.03L61.51 27.1V22a1.25 1.25 0 0 0-1.44-1.23l-22.74 3.5c-.61.09-1.06.61-1.06 1.23v5.57L25.52 42.62l-.05.08zm2.22 2.3l22.46 4.72v26.63l-22.46-6.3V45.01zm9.8-11.58l12.1 13.63-20.73-4.35 8.63-9.28zM52.66 76.1V49.27L72.3 43.3V67.6L52.65 76.1zM71.26 41l-18.73 5.7a1.26 1.26 0 0 0-.2-.33L39.94 32.4l19.88-3.46 11.44 12.04zm-32.5-14.43l20.25-3.11v3.09l-20.24 3.53v-3.5z"/></svg>